<?xml version="1.0" encoding="utf-8" standalone="no"?>
<!DOCTYPE svg PUBLIC "-//W3C//DTD SVG 1.1//EN"
  "http://www.w3.org/Graphics/SVG/1.1/DTD/svg11.dtd">
<!-- Created with matplotlib (https://matplotlib.org/) -->
<svg height="207.36pt" version="1.1" viewBox="0 0 460.8 207.36" width="460.8pt" xmlns="http://www.w3.org/2000/svg" xmlns:xlink="http://www.w3.org/1999/xlink">
 <defs>
  <style type="text/css">
*{stroke-linecap:butt;stroke-linejoin:round;}
  </style>
 </defs>
 <g id="figure_1">
  <g id="patch_1">
   <path d="M 0 207.36 
L 460.8 207.36 
L 460.8 0 
L 0 0 
z
" style="fill:none;"/>
  </g>
  <g id="axes_1">
   <g id="patch_2">
    <path d="M 64.512 179.3664 
L 435.456 179.3664 
L 435.456 12.4416 
L 64.512 12.4416 
z
" style="fill:#ffffff;"/>
   </g>
   <g id="matplotlib.axis_1">
    <g id="xtick_1">
     <g id="line2d_1">
      <defs>
       <path d="M 0 0 
L 0 3.5 
" id="m5153064c45" style="stroke:#000000;stroke-width:0.8;"/>
      </defs>
      <g>
       <use style="stroke:#000000;stroke-width:0.8;" x="64.512" xlink:href="#m5153064c45" y="179.3664"/>
      </g>
     </g>
     <g id="text_1">
      <text style="font-family:DejaVu Sans;font-size:14px;font-style:normal;font-weight:normal;text-anchor:middle;" transform="rotate(-0, 64.512, 197.004212)" x="64.512" y="197.004212">0</text>
     </g>
    </g>
    <g id="xtick_2">
     <g id="line2d_2">
      <g>
       <use style="stroke:#000000;stroke-width:0.8;" x="126.336" xlink:href="#m5153064c45" y="179.3664"/>
      </g>
     </g>
     <g id="text_2">
      <text style="font-family:DejaVu Sans;font-size:14px;font-style:normal;font-weight:normal;text-anchor:middle;" transform="rotate(-0, 126.336, 197.004212)" x="126.336" y="197.004212">50</text>
     </g>
    </g>
    <g id="xtick_3">
     <g id="line2d_3">
      <g>
       <use style="stroke:#000000;stroke-width:0.8;" x="188.16" xlink:href="#m5153064c45" y="179.3664"/>
      </g>
     </g>
     <g id="text_3">
      <text style="font-family:DejaVu Sans;font-size:14px;font-style:normal;font-weight:normal;text-anchor:middle;" transform="rotate(-0, 188.16, 197.004212)" x="188.16" y="197.004212">100</text>
     </g>
    </g>
    <g id="xtick_4">
     <g id="line2d_4">
      <g>
       <use style="stroke:#000000;stroke-width:0.8;" x="249.984" xlink:href="#m5153064c45" y="179.3664"/>
      </g>
     </g>
     <g id="text_4">
      <text style="font-family:DejaVu Sans;font-size:14px;font-style:normal;font-weight:normal;text-anchor:middle;" transform="rotate(-0, 249.984, 197.004212)" x="249.984" y="197.004212">150</text>
     </g>
    </g>
    <g id="xtick_5">
     <g id="line2d_5">
      <g>
       <use style="stroke:#000000;stroke-width:0.8;" x="311.808" xlink:href="#m5153064c45" y="179.3664"/>
      </g>
     </g>
     <g id="text_5">
      <text style="font-family:DejaVu Sans;font-size:14px;font-style:normal;font-weight:normal;text-anchor:middle;" transform="rotate(-0, 311.808, 197.004212)" x="311.808" y="197.004212">200</text>
     </g>
    </g>
    <g id="xtick_6">
     <g id="line2d_6">
      <g>
       <use style="stroke:#000000;stroke-width:0.8;" x="373.632" xlink:href="#m5153064c45" y="179.3664"/>
      </g>
     </g>
     <g id="text_6">
      <text style="font-family:DejaVu Sans;font-size:14px;font-style:normal;font-weight:normal;text-anchor:middle;" transform="rotate(-0, 373.632, 197.004212)" x="373.632" y="197.004212">250</text>
     </g>
    </g>
    <g id="xtick_7">
     <g id="line2d_7">
      <g>
       <use style="stroke:#000000;stroke-width:0.8;" x="435.456" xlink:href="#m5153064c45" y="179.3664"/>
      </g>
     </g>
     <g id="text_7">
      <text style="font-family:DejaVu Sans;font-size:14px;font-style:normal;font-weight:normal;text-anchor:middle;" transform="rotate(-0, 435.456, 197.004212)" x="435.456" y="197.004212">300</text>
     </g>
    </g>
    <g id="text_8">
     <text style="font-family:DejaVu Sans;font-size:18px;font-style:normal;font-weight:normal;text-anchor:middle;" transform="rotate(-0, 249.984, 217.592962)" x="249.984" y="217.592962">Delay (ns)</text>
    </g>
   </g>
   <g id="matplotlib.axis_2">
    <g id="ytick_1">
     <g id="line2d_8">
      <defs>
       <path d="M 0 0 
L -3.5 0 
" id="m3a4c249b7d" style="stroke:#000000;stroke-width:0.8;"/>
      </defs>
      <g>
       <use style="stroke:#000000;stroke-width:0.8;" x="64.512" xlink:href="#m3a4c249b7d" y="179.3664"/>
      </g>
     </g>
     <g id="text_9">
      <text style="font-family:DejaVu Sans;font-size:14px;font-style:normal;font-weight:normal;text-anchor:end;" transform="rotate(-0, 57.512, 184.685306)" x="57.512" y="184.685306">300</text>
     </g>
    </g>
    <g id="ytick_2">
     <g id="line2d_9">
      <g>
       <use style="stroke:#000000;stroke-width:0.8;" x="64.512" xlink:href="#m3a4c249b7d" y="137.6352"/>
      </g>
     </g>
     <g id="text_10">
      <text style="font-family:DejaVu Sans;font-size:14px;font-style:normal;font-weight:normal;text-anchor:end;" transform="rotate(-0, 57.512, 142.954106)" x="57.512" y="142.954106">350</text>
     </g>
    </g>
    <g id="ytick_3">
     <g id="line2d_10">
      <g>
       <use style="stroke:#000000;stroke-width:0.8;" x="64.512" xlink:href="#m3a4c249b7d" y="95.904"/>
      </g>
     </g>
     <g id="text_11">
      <text style="font-family:DejaVu Sans;font-size:14px;font-style:normal;font-weight:normal;text-anchor:end;" transform="rotate(-0, 57.512, 101.222906)" x="57.512" y="101.222906">400</text>
     </g>
    </g>
    <g id="ytick_4">
     <g id="line2d_11">
      <g>
       <use style="stroke:#000000;stroke-width:0.8;" x="64.512" xlink:href="#m3a4c249b7d" y="54.1728"/>
      </g>
     </g>
     <g id="text_12">
      <text style="font-family:DejaVu Sans;font-size:14px;font-style:normal;font-weight:normal;text-anchor:end;" transform="rotate(-0, 57.512, 59.491706)" x="57.512" y="59.491706">450</text>
     </g>
    </g>
    <g id="ytick_5">
     <g id="line2d_12">
      <g>
       <use style="stroke:#000000;stroke-width:0.8;" x="64.512" xlink:href="#m3a4c249b7d" y="12.4416"/>
      </g>
     </g>
     <g id="text_13">
      <text style="font-family:DejaVu Sans;font-size:14px;font-style:normal;font-weight:normal;text-anchor:end;" transform="rotate(-0, 57.512, 17.760506)" x="57.512" y="17.760506">500</text>
     </g>
    </g>
    <g id="text_14">
     <text style="font-family:DejaVu Sans;font-size:18px;font-style:normal;font-weight:normal;text-anchor:middle;" transform="rotate(-90, 23.046063, 95.904)" x="23.046063" y="95.904">Counts</text>
    </g>
   </g>
   <g id="line2d_13">
    <path clip-path="url(#p73b135f7a4)" d="M 65.145078 106.754112 
L 65.778156 107.588736 
L 66.411233 112.59648 
L 67.044311 65.857536 
L 67.677389 90.061632 
L 68.310467 105.084864 
L 68.943544 104.25024 
L 69.576622 79.21152 
L 70.2097 103.415616 
L 70.842778 104.25024 
L 71.475855 99.242496 
L 72.108933 122.611968 
L 72.742011 87.55776 
L 73.375089 105.084864 
L 74.008166 108.42336 
L 74.641244 120.94272 
L 75.274322 94.234752 
L 75.9074 75.873024 
L 76.540477 60.849792 
L 77.173555 116.7696 
L 77.806633 120.108096 
L 78.439711 135.131328 
L 79.072788 85.888512 
L 79.705866 85.888512 
L 80.338944 100.911744 
L 80.972022 136.800576 
L 81.6051 100.07712 
L 82.238177 102.580992 
L 82.871255 89.227008 
L 83.504333 96.738624 
L 84.137411 109.257984 
L 84.770488 95.904 
L 85.403566 120.108096 
L 86.036644 79.21152 
L 86.669722 113.431104 
L 87.302799 105.919488 
L 87.935877 120.94272 
L 88.568955 62.51904 
L 89.202033 94.234752 
L 89.83511 69.196032 
L 90.468188 76.707648 
L 91.101266 58.34592 
L 91.734344 112.59648 
L 92.367421 110.092608 
L 93.000499 109.257984 
L 93.633577 96.738624 
L 94.266655 70.030656 
L 94.899732 111.761856 
L 95.53281 90.061632 
L 96.165888 75.873024 
L 96.798966 86.723136 
L 97.432044 86.723136 
L 98.065121 107.588736 
L 98.698199 87.55776 
L 99.331277 94.234752 
L 99.964355 106.754112 
L 100.597432 111.761856 
L 101.23051 85.053888 
L 101.863588 85.888512 
L 102.496666 93.400128 
L 103.129743 91.73088 
L 103.762821 85.888512 
L 104.395899 100.07712 
L 105.028977 86.723136 
L 105.662054 80.880768 
L 106.295132 90.061632 
L 106.92821 115.934976 
L 107.561288 71.699904 
L 108.194365 113.431104 
L 108.827443 89.227008 
L 109.460521 80.046144 
L 110.093599 100.911744 
L 110.726676 112.59648 
L 111.359754 110.092608 
L 111.992832 65.022912 
L 112.62591 80.046144 
L 113.258988 85.053888 
L 113.892065 117.604224 
L 114.525143 94.234752 
L 115.158221 82.550016 
L 115.791299 92.565504 
L 116.424376 95.069376 
L 117.057454 75.0384 
L 117.690532 82.550016 
L 118.32361 85.888512 
L 118.956687 98.407872 
L 120.222843 70.86528 
L 120.855921 79.21152 
L 121.488998 115.100352 
L 122.122076 125.11584 
L 122.755154 88.392384 
L 123.388232 96.738624 
L 124.021309 80.046144 
L 124.654387 105.919488 
L 125.287465 69.196032 
L 125.920543 124.281216 
L 126.55362 90.061632 
L 127.186698 123.446592 
L 127.819776 96.738624 
L 128.452854 105.919488 
L 129.085932 95.904 
L 129.719009 94.234752 
L 130.352087 100.911744 
L 130.985165 91.73088 
L 131.618243 79.21152 
L 132.25132 91.73088 
L 132.884398 109.257984 
L 133.517476 102.580992 
L 134.150554 118.438848 
L 134.783631 105.919488 
L 135.416709 121.777344 
L 136.049787 99.242496 
L 136.682865 110.092608 
L 137.315942 68.361408 
L 137.94902 85.888512 
L 138.582098 96.738624 
L 139.215176 83.38464 
L 139.848253 96.738624 
L 140.481331 75.0384 
L 141.114409 76.707648 
L 141.747487 107.588736 
L 142.380564 97.573248 
L 143.013642 75.0384 
L 143.64672 127.619712 
L 144.279798 104.25024 
L 144.912876 85.053888 
L 145.545953 104.25024 
L 146.179031 102.580992 
L 146.812109 102.580992 
L 147.445187 69.196032 
L 148.078264 126.785088 
L 148.711342 86.723136 
L 149.34442 86.723136 
L 149.977498 67.526784 
L 150.610575 100.07712 
L 151.243653 106.754112 
L 151.876731 96.738624 
L 152.509809 101.746368 
L 153.142886 89.227008 
L 153.775964 82.550016 
L 154.409042 85.053888 
L 155.04212 82.550016 
L 155.675197 89.227008 
L 156.308275 127.619712 
L 156.941353 110.092608 
L 157.574431 85.888512 
L 158.207508 115.100352 
L 158.840586 113.431104 
L 159.473664 97.573248 
L 160.106742 97.573248 
L 160.73982 85.053888 
L 161.372897 100.911744 
L 162.005975 71.699904 
L 162.639053 107.588736 
L 163.272131 98.407872 
L 163.905208 125.11584 
L 164.538286 90.896256 
L 165.171364 104.25024 
L 165.804442 115.100352 
L 166.437519 87.55776 
L 167.070597 125.950464 
L 167.703675 108.42336 
L 168.96983 85.888512 
L 169.602908 81.715392 
L 170.235986 107.588736 
L 170.869064 87.55776 
L 171.502141 114.265728 
L 172.135219 96.738624 
L 172.768297 111.761856 
L 173.401375 95.069376 
L 174.034452 109.257984 
L 174.66753 88.392384 
L 175.300608 80.880768 
L 175.933686 130.123584 
L 176.566764 89.227008 
L 177.199841 60.849792 
L 177.832919 101.746368 
L 178.465997 106.754112 
L 179.099075 90.061632 
L 179.732152 103.415616 
L 180.36523 84.219264 
L 180.998308 84.219264 
L 181.631386 76.707648 
L 182.264463 103.415616 
L 182.897541 70.030656 
L 183.530619 117.604224 
L 184.163697 104.25024 
L 184.796774 82.550016 
L 185.429852 96.738624 
L 186.06293 94.234752 
L 186.696008 102.580992 
L 187.329085 80.880768 
L 187.962163 105.919488 
L 188.595241 102.580992 
L 189.228319 93.400128 
L 189.861396 90.896256 
L 190.494474 67.526784 
L 191.127552 104.25024 
L 191.76063 120.108096 
L 192.393708 102.580992 
L 193.026785 110.927232 
L 193.659863 108.42336 
L 194.292941 78.376896 
L 194.926019 93.400128 
L 195.559096 95.904 
L 196.192174 100.07712 
L 196.825252 72.534528 
L 197.45833 90.896256 
L 198.091407 94.234752 
L 198.724485 114.265728 
L 199.357563 114.265728 
L 199.990641 105.919488 
L 200.623718 67.526784 
L 201.256796 94.234752 
L 201.889874 100.07712 
L 202.522952 90.061632 
L 203.156029 115.100352 
L 203.789107 92.565504 
L 204.422185 115.100352 
L 205.055263 95.904 
L 205.68834 68.361408 
L 206.321418 116.7696 
L 206.954496 93.400128 
L 207.587574 115.934976 
L 208.220652 100.07712 
L 208.853729 93.400128 
L 209.486807 105.919488 
L 210.119885 90.061632 
L 210.752963 101.746368 
L 211.38604 76.707648 
L 212.019118 115.934976 
L 212.652196 125.11584 
L 213.285274 84.219264 
L 213.918351 60.849792 
L 214.551429 120.94272 
L 215.184507 91.73088 
L 215.817585 106.754112 
L 216.450662 118.438848 
L 217.08374 78.376896 
L 217.716818 107.588736 
L 218.349896 103.415616 
L 218.982973 80.046144 
L 219.616051 74.203776 
L 220.249129 112.59648 
L 220.882207 121.777344 
L 221.515284 106.754112 
L 222.148362 96.738624 
L 222.78144 94.234752 
L 223.414518 81.715392 
L 224.047596 100.911744 
L 224.680673 75.873024 
L 225.313751 73.369152 
L 225.946829 95.904 
L 226.579907 106.754112 
L 227.212984 100.07712 
L 227.846062 101.746368 
L 228.47914 92.565504 
L 229.112218 92.565504 
L 229.745295 70.030656 
L 230.378373 94.234752 
L 231.011451 103.415616 
L 231.644529 96.738624 
L 232.277606 120.108096 
L 233.543762 76.707648 
L 234.17684 128.454336 
L 234.809917 129.28896 
L 235.442995 70.030656 
L 236.076073 80.046144 
L 236.709151 100.911744 
L 237.342228 90.061632 
L 237.975306 99.242496 
L 238.608384 111.761856 
L 239.241462 80.880768 
L 239.87454 105.919488 
L 240.507617 75.873024 
L 241.140695 108.42336 
L 241.773773 114.265728 
L 242.406851 104.25024 
L 243.039928 126.785088 
L 243.673006 89.227008 
L 244.306084 89.227008 
L 244.939162 56.676672 
L 245.572239 108.42336 
L 246.205317 84.219264 
L 246.838395 117.604224 
L 247.471473 119.273472 
L 248.10455 88.392384 
L 248.737628 105.084864 
L 249.370706 116.7696 
L 250.003784 110.092608 
L 250.636861 97.573248 
L 251.269939 75.0384 
L 251.903017 96.738624 
L 252.536095 77.542272 
L 253.169172 113.431104 
L 253.80225 98.407872 
L 254.435328 122.611968 
L 255.068406 101.746368 
L 255.701484 64.188288 
L 256.334561 87.55776 
L 256.967639 89.227008 
L 257.600717 83.38464 
L 258.233795 80.880768 
L 258.866872 126.785088 
L 259.49995 111.761856 
L 260.766106 121.777344 
L 261.399183 86.723136 
L 262.032261 82.550016 
L 262.665339 125.950464 
L 263.298417 120.108096 
L 263.931494 83.38464 
L 264.564572 87.55776 
L 265.19765 85.053888 
L 265.830728 124.281216 
L 266.463805 99.242496 
L 267.096883 85.888512 
L 267.729961 96.738624 
L 268.363039 104.25024 
L 268.996116 90.896256 
L 269.629194 110.092608 
L 270.262272 96.738624 
L 270.89535 110.092608 
L 271.528428 75.0384 
L 272.794583 99.242496 
L 273.427661 132.627456 
L 274.060739 97.573248 
L 274.693816 70.030656 
L 275.959972 120.94272 
L 276.59305 111.761856 
L 277.226127 132.627456 
L 277.859205 134.296704 
L 278.492283 115.934976 
L 279.125361 100.911744 
L 279.758438 90.896256 
L 280.391516 114.265728 
L 281.024594 101.746368 
L 281.657672 100.07712 
L 282.290749 100.911744 
L 282.923827 96.738624 
L 283.556905 90.896256 
L 284.189983 95.904 
L 284.82306 90.061632 
L 285.456138 140.139072 
L 286.722294 88.392384 
L 287.355372 106.754112 
L 287.988449 76.707648 
L 288.621527 71.699904 
L 289.254605 83.38464 
L 289.887683 75.873024 
L 290.52076 85.053888 
L 291.153838 108.42336 
L 291.786916 108.42336 
L 292.419994 87.55776 
L 293.053071 119.273472 
L 294.319227 78.376896 
L 294.952305 76.707648 
L 296.21846 106.754112 
L 296.851538 75.873024 
L 297.484616 95.069376 
L 298.117693 71.699904 
L 298.750771 87.55776 
L 299.383849 113.431104 
L 300.016927 116.7696 
L 300.650004 92.565504 
L 301.283082 93.400128 
L 301.91616 93.400128 
L 302.549238 90.896256 
L 303.182316 90.896256 
L 303.815393 60.015168 
L 304.448471 90.896256 
L 305.081549 110.927232 
L 305.714627 102.580992 
L 306.347704 105.919488 
L 306.980782 115.934976 
L 307.61386 150.989184 
L 308.246938 91.73088 
L 308.880015 106.754112 
L 309.513093 80.880768 
L 310.146171 108.42336 
L 310.779249 87.55776 
L 311.412326 90.061632 
L 312.045404 119.273472 
L 312.678482 122.611968 
L 313.31156 113.431104 
L 313.944637 118.438848 
L 314.577715 101.746368 
L 315.210793 95.904 
L 315.843871 93.400128 
L 316.476948 120.108096 
L 317.110026 85.888512 
L 317.743104 98.407872 
L 318.376182 83.38464 
L 319.00926 104.25024 
L 319.642337 110.927232 
L 320.275415 108.42336 
L 320.908493 88.392384 
L 321.541571 119.273472 
L 322.174648 84.219264 
L 322.807726 106.754112 
L 323.440804 91.73088 
L 324.073882 94.234752 
L 325.340037 110.092608 
L 325.973115 100.911744 
L 326.606193 121.777344 
L 327.23927 86.723136 
L 327.872348 90.061632 
L 328.505426 105.919488 
L 329.138504 97.573248 
L 329.771581 93.400128 
L 330.404659 130.958208 
L 331.037737 81.715392 
L 331.670815 68.361408 
L 332.303892 125.950464 
L 332.93697 105.084864 
L 333.570048 104.25024 
L 334.203126 90.061632 
L 334.836204 125.11584 
L 335.469281 105.084864 
L 336.102359 111.761856 
L 336.735437 70.030656 
L 337.368515 132.627456 
L 338.001592 79.21152 
L 338.63467 100.911744 
L 339.267748 109.257984 
L 339.900826 97.573248 
L 340.533903 96.738624 
L 341.166981 98.407872 
L 341.800059 128.454336 
L 342.433137 102.580992 
L 343.066214 109.257984 
L 343.699292 94.234752 
L 344.33237 115.100352 
L 344.965448 104.25024 
L 345.598525 125.11584 
L 346.231603 110.092608 
L 346.864681 90.896256 
L 347.497759 96.738624 
L 348.130836 111.761856 
L 348.763914 96.738624 
L 349.396992 99.242496 
L 350.03007 87.55776 
L 350.663148 88.392384 
L 351.296225 91.73088 
L 351.929303 103.415616 
L 352.562381 104.25024 
L 353.195459 81.715392 
L 353.828536 86.723136 
L 354.461614 141.80832 
L 355.094692 80.046144 
L 355.72777 86.723136 
L 356.360847 127.619712 
L 357.627003 98.407872 
L 358.260081 117.604224 
L 358.893158 99.242496 
L 359.526236 131.792832 
L 360.159314 109.257984 
L 360.792392 116.7696 
L 361.425469 119.273472 
L 362.058547 95.069376 
L 362.691625 85.888512 
L 363.324703 109.257984 
L 363.95778 150.989184 
L 364.590858 105.919488 
L 365.223936 123.446592 
L 365.857014 105.919488 
L 366.490092 115.934976 
L 367.123169 81.715392 
L 367.756247 107.588736 
L 368.389325 101.746368 
L 369.022403 92.565504 
L 369.65548 98.407872 
L 370.288558 139.304448 
L 370.921636 132.627456 
L 371.554714 84.219264 
L 372.187791 104.25024 
L 372.820869 111.761856 
L 373.453947 109.257984 
L 374.087025 121.777344 
L 374.720102 121.777344 
L 375.35318 123.446592 
L 375.986258 124.281216 
L 376.619336 116.7696 
L 377.252413 94.234752 
L 377.885491 122.611968 
L 378.518569 93.400128 
L 379.151647 99.242496 
L 379.784724 110.927232 
L 380.417802 86.723136 
L 381.05088 120.108096 
L 381.683958 95.904 
L 382.317036 97.573248 
L 382.950113 80.046144 
L 383.583191 105.919488 
L 384.216269 92.565504 
L 384.849347 91.73088 
L 385.482424 95.069376 
L 386.115502 131.792832 
L 386.74858 110.092608 
L 387.381658 75.0384 
L 388.014735 62.51904 
L 388.647813 103.415616 
L 389.280891 101.746368 
L 389.913969 108.42336 
L 390.547046 126.785088 
L 391.180124 82.550016 
L 391.813202 97.573248 
L 393.079357 85.053888 
L 393.712435 115.100352 
L 394.345513 81.715392 
L 394.978591 90.896256 
L 395.611668 95.069376 
L 396.244746 107.588736 
L 397.510902 102.580992 
L 398.14398 105.084864 
L 398.777057 105.084864 
L 399.410135 100.07712 
L 400.043213 101.746368 
L 400.676291 99.242496 
L 401.309368 102.580992 
L 401.942446 72.534528 
L 402.575524 88.392384 
L 403.208602 120.108096 
L 403.841679 100.911744 
L 404.474757 102.580992 
L 405.107835 128.454336 
L 405.740913 113.431104 
L 406.37399 113.431104 
L 407.007068 104.25024 
L 407.640146 118.438848 
L 408.273224 82.550016 
L 408.906301 90.061632 
L 409.539379 80.046144 
L 410.172457 100.07712 
L 410.805535 97.573248 
L 411.438612 104.25024 
L 412.07169 103.415616 
L 412.704768 85.888512 
L 413.970924 110.927232 
L 414.604001 135.965952 
L 415.237079 121.777344 
L 415.870157 101.746368 
L 416.503235 106.754112 
L 417.136312 80.046144 
L 417.76939 100.911744 
L 418.402468 96.738624 
L 419.035546 116.7696 
L 419.668623 95.904 
L 420.301701 110.092608 
L 420.934779 75.873024 
L 421.567857 101.746368 
L 422.200934 70.86528 
L 422.834012 110.092608 
L 423.46709 103.415616 
L 424.100168 122.611968 
L 424.733245 88.392384 
L 425.999401 97.573248 
L 426.632479 107.588736 
L 427.265556 108.42336 
L 427.898634 101.746368 
L 428.531712 130.958208 
L 429.16479 100.911744 
L 429.797868 107.588736 
L 430.430945 116.7696 
L 431.064023 114.265728 
L 431.697101 97.573248 
L 432.330179 116.7696 
L 432.963256 107.588736 
L 434.229412 99.242496 
L 435.495567 122.611968 
L 435.495567 122.611968 
" style="fill:none;stroke:#b4b4b4;stroke-linecap:square;stroke-width:3;"/>
   </g>
   <g id="line2d_14">
    <path clip-path="url(#p73b135f7a4)" d="M 65.145078 95.583504 
L 435.495567 95.583504 
L 435.495567 95.583504 
" style="fill:none;stroke:#3737ff;stroke-linecap:square;stroke-width:3;"/>
   </g>
   <g id="line2d_15">
    <path clip-path="url(#p73b135f7a4)" d="M 64.512 95.583504 
L 412.843188 104.133087 
L 437.320514 104.725577 
L 437.320514 104.725577 
" style="fill:none;stroke:#ff3737;stroke-linecap:square;stroke-width:3;"/>
   </g>
   <g id="patch_3">
    <path d="M 64.512 179.3664 
L 64.512 12.4416 
" style="fill:none;stroke:#000000;stroke-linecap:square;stroke-linejoin:miter;stroke-width:0.8;"/>
   </g>
   <g id="patch_4">
    <path d="M 435.456 179.3664 
L 435.456 12.4416 
" style="fill:none;stroke:#000000;stroke-linecap:square;stroke-linejoin:miter;stroke-width:0.8;"/>
   </g>
   <g id="patch_5">
    <path d="M 64.512 179.3664 
L 435.456 179.3664 
" style="fill:none;stroke:#000000;stroke-linecap:square;stroke-linejoin:miter;stroke-width:0.8;"/>
   </g>
   <g id="patch_6">
    <path d="M 64.512 12.4416 
L 435.456 12.4416 
" style="fill:none;stroke:#000000;stroke-linecap:square;stroke-linejoin:miter;stroke-width:0.8;"/>
   </g>
   <g id="text_15">
    <text style="font-family:DejaVu Sans;font-size:12px;font-style:normal;font-weight:normal;text-anchor:middle;" transform="rotate(-0, 249.984, 6.4416)" x="249.984" y="6.4416">Rate before splitting 2.62e+05 s-1, BeamSplitter 0.65, T 50 s</text>
   </g>
   <g id="legend_1">
    <g id="patch_7">
     <path d="M 236.08725 74.88285 
L 427.056 74.88285 
Q 429.456 74.88285 429.456 72.48285 
L 429.456 20.8416 
Q 429.456 18.4416 427.056 18.4416 
L 236.08725 18.4416 
Q 233.68725 18.4416 233.68725 20.8416 
L 233.68725 72.48285 
Q 233.68725 74.88285 236.08725 74.88285 
z
" style="fill:#ffffff;opacity:0.8;stroke:#cccccc;stroke-linejoin:miter;"/>
    </g>
    <g id="line2d_16">
     <path d="M 238.48725 28.159725 
L 262.48725 28.159725 
" style="fill:none;stroke:#b4b4b4;stroke-linecap:square;stroke-width:3;"/>
    </g>
    <g id="line2d_17"/>
    <g id="text_16">
     <text style="font-family:DejaVu Sans;font-size:12px;font-style:normal;font-weight:normal;text-anchor:start;" transform="rotate(-0, 272.08725, 32.359725)" x="272.08725" y="32.359725">Simulation histogrammer</text>
    </g>
    <g id="line2d_18">
     <path d="M 238.48725 45.773475 
L 262.48725 45.773475 
" style="fill:none;stroke:#3737ff;stroke-linecap:square;stroke-width:3;"/>
    </g>
    <g id="line2d_19"/>
    <g id="text_17">
     <text style="font-family:DejaVu Sans;font-size:12px;font-style:normal;font-weight:normal;text-anchor:start;" transform="rotate(-0, 272.08725, 49.973475)" x="272.08725" y="49.973475">Theory : Perfect g2</text>
    </g>
    <g id="line2d_20">
     <path d="M 238.48725 63.387225 
L 262.48725 63.387225 
" style="fill:none;stroke:#ff3737;stroke-linecap:square;stroke-width:3;"/>
    </g>
    <g id="line2d_21"/>
    <g id="text_18">
     <text style="font-family:DejaVu Sans;font-size:12px;font-style:normal;font-weight:normal;text-anchor:start;" transform="rotate(-0, 272.08725, 67.587225)" x="272.08725" y="67.587225">Theory : histogram</text>
    </g>
   </g>
  </g>
 </g>
 <defs>
  <clipPath id="p73b135f7a4">
   <rect height="166.9248" width="370.944" x="64.512" y="12.4416"/>
  </clipPath>
 </defs>
</svg>
